<?xml version="1.0" encoding="UTF-8"?>
<svg id="_图层_1" data-name="图层 1" xmlns="http://www.w3.org/2000/svg" width="422.84" height="425.18" viewBox="0 0 422.84 425.18">
  <defs>
    <style>
      .cls-1 {
        fill: #42ff9e;
      }

      .cls-2 {
        fill: #6d85ec;
      }

      .cls-3 {
        fill: #58c2c5;
      }

      .cls-4 {
        fill: #7866ff;
      }

      .cls-5 {
        fill: #4de0b1;
      }

      .cls-6 {
        stroke: #7376f6;
      }

      .cls-6, .cls-7, .cls-8, .cls-9 {
        fill: none;
        stroke-width: 2px;
      }

      .cls-7 {
        stroke: #48f0a8;
      }

      .cls-8 {
        stroke: #63a4d9;
      }

      .cls-9 {
        stroke: #53d1bb;
      }
    </style>
  </defs>
  <g>
    <path class="cls-7" d="M71.56,0l-.31,70.06c0,.51-.42,.93-.93,.93H1.78c-.33,0-.52-.16-.59-.48l-.21-1.02" vector-effect="non-scaling-stroke"/>
    <path class="cls-9" d="M142.6,.31l-.24,69.26c0,.74-.6,1.34-1.35,1.35l-68.96,.1c-.4,0-.73,.33-.73,.73l-.02,67.3c0,1.33-.67,2-2,2l-68.26,.09" vector-effect="non-scaling-stroke"/>
    <path class="cls-8" d="M213.26,.46l.02,69.8c0,.27-.21,.48-.48,.48h-69.5c-.55,0-1,.45-1,1.01h0l.03,69.23c0,.28-.23,.51-.51,.51H72.07c-.33,0-.49,.16-.5,.49l-.04,69.51c0,.59-.47,1.06-1.06,1.06,0,0,0,0-.01,0l-69.43-.66" vector-effect="non-scaling-stroke"/>
    <path class="cls-6" d="M285.05,12.58l-.21,56.89c0,.56-.46,1.02-1.02,1.02h-69.21c-.73,0-1.03,.36-.91,1.08,.26,1.55,.39,3.36,.4,5.42,.05,21.33-.01,42.67-.19,64.02,0,.35,.17,.55,.52,.58l3.15,.34" vector-effect="non-scaling-stroke"/>
    <path class="cls-6" d="M201.92,142.11c-18.8-1.6-38.58-.68-57.32-.6-.66,0-1.19,.53-1.2,1.18-.34,17.42-.03,35.09,.93,53.02" vector-effect="non-scaling-stroke"/>
    <path class="cls-6" d="M142.85,212.15l-69.48,.04c-.59,0-1.06,.47-1.06,1.06v69c0,.49-.39,.88-.88,.88,0,0,0,0-.01,0-18.79-.21-37.51-.22-56.17-.04-.77,0-1.44,.31-2,.91" vector-effect="non-scaling-stroke"/>
  </g>
  <path class="cls-1" d="M71.56,0l-.31,70.06c0,.51-.42,.93-.93,.93H1.78c-.33,0-.52-.16-.59-.48l-.21-1.02L1.06,1.22c0-.67,.54-1.21,1.21-1.21H71.56Z"/>
  <path class="cls-5" d="M71.56,0l71.04,.31-.24,69.26c0,.74-.6,1.34-1.35,1.35l-68.96,.1c-.4,0-.73,.33-.73,.73l-.02,67.3c0,1.33-.67,2-2,2l-68.26,.09-.06-71.65,.21,1.02c.07,.32,.26,.48,.59,.48H70.32c.51,0,.93-.42,.93-.93L71.56,0Z"/>
  <path class="cls-3" d="M142.6,.31l70.66,.15,.02,69.8c0,.27-.21,.48-.48,.48h-69.5c-.55,0-1,.45-1,1.01h0l.03,69.23c0,.28-.23,.51-.51,.51H72.07c-.33,0-.49,.16-.5,.49l-.04,69.51c0,.59-.47,1.06-1.06,1.06,0,0,0,0-.01,0l-69.43-.66v-70.75s68.27-.09,68.27-.09c1.33,0,2-.67,2-2l.02-67.3c0-.4,.33-.72,.73-.73l68.96-.1c.75,0,1.35-.61,1.35-1.35l.24-69.26Z"/>
  <path class="cls-2" d="M213.26,.46c24.85-.45,48.78,3.59,71.79,12.12l-.21,56.89c0,.56-.46,1.02-1.02,1.02h-69.21c-.73,0-1.03,.36-.91,1.08,.26,1.55,.39,3.36,.4,5.42,.05,21.33-.01,42.67-.19,64.02,0,.35,.17,.55,.52,.58l3.15,.34-15.66,.18c-18.8-1.6-38.58-.68-57.32-.6-.66,0-1.19,.53-1.2,1.18-.34,17.42-.03,35.09,.93,53.02l-1.48,16.44-69.48,.04c-.59,0-1.06,.47-1.06,1.06v69c0,.49-.39,.88-.88,.88,0,0,0,0-.01,0-18.79-.21-37.51-.22-56.17-.04-.77,0-1.44,.31-2,.91C5.16,260.73,1.08,236.69,1.03,211.89l69.43,.66c.59,0,1.06-.46,1.07-1.05,0,0,0,0,0-.01l.04-69.51c0-.33,.17-.49,.5-.49h69.75c.28,0,.51-.23,.51-.51l-.03-69.23c0-.56,.45-1.01,1-1.01h69.5c.27,0,.48-.21,.48-.48h0s-.02-69.8-.02-69.8Z"/>
  <path class="cls-4" d="M285.05,12.58c72.81,25.8,122.74,87.66,137.76,162.59,.17,.82-.37,1.62-1.19,1.79-.1,.02-.2,.03-.3,.03h-145.54c-.59,0-1.13-.3-1.45-.8-12.64-20.12-32.64-32.53-56.75-34.26l-3.15-.34c-.35-.03-.52-.23-.52-.58,.18-21.35,.24-42.69,.19-64.02,0-2.06-.14-3.87-.4-5.42-.12-.72,.18-1.08,.91-1.08h69.21c.56,0,1.01-.46,1.02-1.02l.21-56.89Z"/>
  <path class="cls-4" d="M201.92,142.11c-3.69,1.25-7.9,2.16-11.08,3.34-23.27,8.59-38.78,25.35-46.51,50.26-.96-17.93-1.27-35.6-.93-53.02,.01-.65,.54-1.18,1.2-1.18,18.74-.08,38.52-1,57.32,.6Z"/>
  <path class="cls-4" d="M142.85,212.15c1.01,30.39,14.84,51.92,41.49,64.59,6.19,2.93,13.08,4.86,20.69,5.79,30.23,3.67,53.03-9.73,69.67-34.11,.2-.29,.53-.47,.89-.47,48.43,.04,96.83,.11,145.21,.22,.51,0,.92,.03,1.23,.08,.42,.07,.71,.46,.64,.87,0,0,0,.01,0,.02-14.03,76.7-66.6,138.91-140.16,164.3-111.06,38.32-229.32-20.41-269.26-129.44,.56-.6,1.23-.9,2-.91,18.66-.18,37.38-.17,56.17,.04,.49,0,.88-.38,.89-.87,0,0,0,0,0-.01v-69c0-.59,.47-1.06,1.06-1.06l69.48-.04Z"/>
</svg>