<?xml version="1.0" encoding="utf-8"?>
<!-- Generator: Adobe Illustrator 27.0.0, SVG Export Plug-In . SVG Version: 6.00 Build 0)  -->
<svg version="1.1" id="图层_1" xmlns="http://www.w3.org/2000/svg" xmlns:xlink="http://www.w3.org/1999/xlink" x="0px" y="0px"
	 viewBox="0 0 128 128" style="enable-background:new 0 0 128 128;" xml:space="preserve">
<style type="text/css">
	.st0{fill:#FFFFFF;}
	.st1{fill:url(#SVGID_1_);fill-opacity:0;}
	.st2{fill:url(#SVGID_00000081630661819996342920000004761609936857815948_);}
	.st3{opacity:0.6;fill:url(#SVGID_00000102528686541303970900000008269483737136336275_);enable-background:new    ;}
	.st4{opacity:0.5;fill:url(#SVGID_00000183222516173172221740000002622454072697505722_);enable-background:new    ;}
	.st5{opacity:0.5;}
	.st6{fill:url(#SVGID_00000122696246917795855410000014374020377119111815_);}
	.st7{fill:url(#SVGID_00000145765569393560102650000016880411546465331073_);}
	.st8{fill:url(#SVGID_00000034049093021865985740000011460152210483981713_);}
	.st9{fill:url(#SVGID_00000024715632022455184300000009818983112533061250_);}
	.st10{fill:url(#SVGID_00000109006084442049169340000003249644975341367193_);}
</style>
<path class="st0" d="M90.1,114.1H37.9c-13.3,0-24.1-10.8-24.1-24.1V37.9c0-13.3,10.8-24.1,24.1-24.1h52.1
	c13.3,0,24.1,10.8,24.1,24.1v52.1C114.1,103.4,103.4,114.1,90.1,114.1z"/>
<g>
	<g>
		<g>
			
				<linearGradient id="SVGID_1_" gradientUnits="userSpaceOnUse" x1="-853.5563" y1="-5.8823" x2="-853.5563" y2="-6.5917" gradientTransform="matrix(121.3367 0 0 105.0261 103631.7109 719.0229)">
				<stop  offset="0" style="stop-color:#6A12CB"/>
				<stop  offset="1" style="stop-color:#2575FC"/>
			</linearGradient>
			<rect x="21" y="26.7" class="st1" width="86.1" height="74.5"/>
			<g id="bdb629a9-c5a0-4b5e-83f7-409ce17022fc">
				<g id="f1d53a6a-9d11-4667-8b9e-c2b3e6492a78">
					
						<linearGradient id="SVGID_00000178901384420231566750000017590239799798658965_" gradientUnits="userSpaceOnUse" x1="-852.7388" y1="-5.5304" x2="-852.7388" y2="-6.2401" gradientTransform="matrix(103.7521 0 0 97.2874 88542.7109 633.8499)">
						<stop  offset="0" style="stop-color:#6A12CB"/>
						<stop  offset="1" style="stop-color:#2575FC"/>
					</linearGradient>
					<path style="fill:url(#SVGID_00000178901384420231566750000017590239799798658965_);" d="M97.8,59.2
						C90.6,51.9,86,43.6,82.1,43.9c-3,0.2-5.5,6.5-8.7,6.4c-3.3-0.1-5-7.1-9.3-7.4c-4.3-0.3-16,15.9-17.6,20.4
						c-2.3,6.3,4,10.9,9.1,7c5.1-3.9,8.2-8.5,10.1-8.5c1.9,0,3.7,7.3,7.2,7.3c3.5,0,7.1-6.3,9-6.8C85.5,61.2,92.3,70,93.4,77
						C95,86.4,84,96.6,61.8,95.8C44.1,95.1,26.4,76.9,34.4,57s25.6-31.4,46.1-30.2c20.4,1.3,27,20.2,25.3,28.1
						C104,62.7,100.2,61.6,97.8,59.2z"/>
					
						<linearGradient id="SVGID_00000094590164107328050960000014172053398272099754_" gradientUnits="userSpaceOnUse" x1="-851.8659" y1="-3.4191" x2="-851.8659" y2="-4.1287" gradientTransform="matrix(90.7723 0 0 66.8855 77384.0391 311.2053)">
						<stop  offset="0" style="stop-color:#6A12CB"/>
						<stop  offset="1" style="stop-color:#2575FC"/>
					</linearGradient>
					
						<path style="opacity:0.6;fill:url(#SVGID_00000094590164107328050960000014172053398272099754_);enable-background:new    ;" d="
						M88.5,66.6c-2.3-2.9-4.9-4.8-6.7-4.3c-1.8,0.5-5.5,6.8-9,6.8c-3.5,0-5.3-7.3-7.2-7.3c-2,0-5,4.6-10.1,8.5
						c-5,3.9-11.4-0.7-9.1-7c1.7-4.5,13.3-20.6,17.6-20.4c4.3,0.3,6.1,7.3,9.4,7.4c3.3,0.1,5.7-6.2,8.7-6.4c1.6-0.1,3.1,1.1,4.9,2.9
						C79.1,37,63.8,33.7,50.4,35.7c-11.3,1.7-21.1,7.2-23.6,16.1s0.4,15.6,6.1,20.5C51.7,88.5,100.6,84.5,88.5,66.6z"/>
					
						<linearGradient id="SVGID_00000118358713877310865210000010675733378970038158_" gradientUnits="userSpaceOnUse" x1="-850.2584" y1="-3.4096" x2="-850.2584" y2="-4.1196" gradientTransform="matrix(72.5941 0 0 65.6321 61791.3359 325.0571)">
						<stop  offset="0" style="stop-color:#6A12CB"/>
						<stop  offset="1" style="stop-color:#2575FC"/>
					</linearGradient>
					
						<path style="opacity:0.5;fill:url(#SVGID_00000118358713877310865210000010675733378970038158_);enable-background:new    ;" d="
						M81.8,62.3c-1.9,0.5-5.5,6.8-9,6.8c-3.5,0-5.3-7.3-7.2-7.3c-1.9,0-5,4.6-10.1,8.5c-5,3.9-11.4-0.7-9.1-7c0.6-1.7,2.7-5,5.3-8.6
						c-9.7,12.8-11.4,25-8.5,33.7l1,0.8l-1-0.8c2.8,8.3,9.6,13.5,17.8,12.8c4-0.3,7.9-2.8,11.7-6l0,0c10.3-8.9,19-24.1,20.7-18.2
						C92.2,70,85.5,61.3,81.8,62.3z M61.8,95.8c-6.4-0.4-12.5-2.6-17.5-6.5C49.3,93.1,55.4,95.4,61.8,95.8c3.5,0.1,7.1,0,10.6-0.5
						C68.8,95.7,65.3,95.9,61.8,95.8z"/>
					<g class="st5">
						
							<linearGradient id="SVGID_00000003801648549725253940000006826677332873928370_" gradientUnits="userSpaceOnUse" x1="-810.0453" y1="23.6331" x2="-810.0453" y2="22.9237" gradientTransform="matrix(12.0739 0 0 13.5837 9880.5176 -279.1993)">
							<stop  offset="0" style="stop-color:#6A12CB"/>
							<stop  offset="1" style="stop-color:#2575FC"/>
						</linearGradient>
						<path style="fill:url(#SVGID_00000003801648549725253940000006826677332873928370_);" d="M102.2,33.7
							c-1.8-1.3-4.2-1.8-6.4-1.3c3.2,2.6,5.8,5.7,7.6,9.4C104.8,38.6,105,35.7,102.2,33.7z"/>
						
							<linearGradient id="SVGID_00000091732277717349398550000012319759707815240885_" gradientUnits="userSpaceOnUse" x1="-846.0461" y1="1.9041" x2="-846.0461" y2="1.1946" gradientTransform="matrix(47.4217 0 0 37.7809 40207.5391 -12.7373)">
							<stop  offset="0" style="stop-color:#6A12CB"/>
							<stop  offset="1" style="stop-color:#2575FC"/>
						</linearGradient>
						<path style="fill:url(#SVGID_00000091732277717349398550000012319759707815240885_);" d="M95.8,32.4
							c-9.9,1.9-21.5,18.1-26,15.1c1.1,1.5,2.3,2.8,3.6,2.8c3.3,0.1,5.7-6.2,8.7-6.4c4-0.3,8.5,8,15.8,15.3
							c-2.8-4.7,3.1-11.6,5.5-17.4C101.6,38.1,99,35,95.8,32.4z"/>
					</g>
					
						<linearGradient id="SVGID_00000125574767207400863680000002823323297583764130_" gradientUnits="userSpaceOnUse" x1="-853.1936" y1="9.1555" x2="-853.1936" y2="8.446" gradientTransform="matrix(112.8498 0 0 22.9567 96349.0312 -126.5166)">
						<stop  offset="0" style="stop-color:#6A12CB"/>
						<stop  offset="1" style="stop-color:#2575FC"/>
					</linearGradient>
					<path style="fill:url(#SVGID_00000125574767207400863680000002823323297583764130_);" d="M96.2,67.5c-2.1,1.3,4.5,16,9.1,13
						C109.9,77.5,98.2,66.1,96.2,67.5z M32,78.3c1.5,1.2-1.3,7.4-4.8,4.7C23.9,80.3,30.5,77.1,32,78.3z"/>
					
						<linearGradient id="SVGID_00000165924300956811693810000005062941264605073069_" gradientUnits="userSpaceOnUse" x1="-846.1498" y1="-1.079" x2="-846.1498" y2="-1.788" gradientTransform="matrix(47.704 0 0 48.5639 40454.8398 151.9199)">
						<stop  offset="0" style="stop-color:#6A12CB"/>
						<stop  offset="1" style="stop-color:#2575FC"/>
					</linearGradient>
					<path style="fill:url(#SVGID_00000165924300956811693810000005062941264605073069_);" d="M101.5,65.2c-2.6,1,3.4,5.8,5.2,3.6
						C108.5,66.5,103.1,64.5,101.5,65.2z M73.3,97.5c-0.6,2.6,3.1,2.7,2.3,0.1C75.1,96.1,73.6,96,73.3,97.5z"/>
					
						<linearGradient id="SVGID_00000137824791375695775460000001804611331553396907_" gradientUnits="userSpaceOnUse" x1="-814.2316" y1="42.2897" x2="-814.2316" y2="41.5802" gradientTransform="matrix(13.9027 0 0 8.4517 11345.8887 -279.1354)">
						<stop  offset="0" style="stop-color:#6A12CB"/>
						<stop  offset="1" style="stop-color:#2575FC"/>
					</linearGradient>
					<path style="fill:url(#SVGID_00000137824791375695775460000001804611331553396907_);" d="M30.3,75c-1.2,1.7-4.7,3.8-7.4,3.1
						c-2.3-0.6-4.1-6.8,4.3-5.7C31.9,73.1,30.8,74.2,30.3,75z"/>
				</g>
			</g>
		</g>
	</g>
</g>
</svg>
