<?xml version="1.0" encoding="utf-8"?>
<!-- Generator: Adobe Illustrator 27.0.0, SVG Export Plug-In . SVG Version: 6.00 Build 0)  -->
<svg version="1.1" id="图层_1" xmlns="http://www.w3.org/2000/svg" xmlns:xlink="http://www.w3.org/1999/xlink" x="0px" y="0px"
	 viewBox="0 0 150 150" style="enable-background:new 0 0 150 150;" xml:space="preserve">
<style type="text/css">
	.st0{fill:#FFFFFF;}
	.st1{fill:url(#SVGID_1_);fill-opacity:0;}
	.st2{fill:url(#SVGID_00000061450821630089678480000001437030703573867436_);}
	.st3{opacity:0.6;fill:url(#SVGID_00000137095896423718015830000004750683854073679491_);enable-background:new    ;}
	.st4{opacity:0.5;fill:url(#SVGID_00000180354947475527245580000003758072273297740719_);enable-background:new    ;}
	.st5{opacity:0.5;}
	.st6{fill:url(#SVGID_00000016077602209318747340000015024987910585183876_);}
	.st7{fill:url(#SVGID_00000070115856251588378080000010977632362888116383_);}
	.st8{fill:url(#SVGID_00000029011082930074326590000005622865904109247154_);}
	.st9{fill:url(#SVGID_00000083090403886359896180000004563901323789138358_);}
	.st10{fill:url(#SVGID_00000109730030574530526630000018325489732682968981_);}
</style>
<ellipse class="st0" cx="81.1" cy="71.9" rx="65" ry="61.3"/>
<g>
	<g>
		<g>
			
				<linearGradient id="SVGID_1_" gradientUnits="userSpaceOnUse" x1="-842.6414" y1="5.5069" x2="-842.6414" y2="4.0397" gradientTransform="matrix(121.3367 0 0 105.0261 102308.0078 -425.2642)">
				<stop  offset="0" style="stop-color:#6A12CB"/>
				<stop  offset="1" style="stop-color:#2575FC"/>
			</linearGradient>
			<rect x="-23.7" y="-1" class="st1" width="176.7" height="154.1"/>
			<g id="bdb629a9-c5a0-4b5e-83f7-409ce17022fc">
				<g id="f1d53a6a-9d11-4667-8b9e-c2b3e6492a78">
					
						<linearGradient id="SVGID_00000144326913352428518350000014597966796865747113_" gradientUnits="userSpaceOnUse" x1="-841.7848" y1="5.8303" x2="-841.7848" y2="4.3625" gradientTransform="matrix(103.7521 0 0 97.2874 87412.4375 -425.3115)">
						<stop  offset="0" style="stop-color:#6A12CB"/>
						<stop  offset="1" style="stop-color:#2575FC"/>
					</linearGradient>
					<path style="fill:url(#SVGID_00000144326913352428518350000014597966796865747113_);" d="M134.1,66.2
						c-14.9-15.1-24.2-32.3-32.3-31.7C95.6,35,90.5,48,83.8,47.7c-6.7-0.3-10.2-14.7-19.1-15.3C55.9,31.9,32,65.3,28.6,74.6
						c-4.8,13.1,8.2,22.6,18.6,14.5S64,71.5,68,71.5c3.9,0,7.6,15.1,14.9,15.1s14.6-13.1,18.5-14.1c7.6-2.2,21.4,16,23.7,30.5
						c3.2,19.4-19.4,40.5-65,38.7c-36.3-1.3-72.7-39-56.1-80.1s52.6-65,94.7-62.4c42,2.6,55.5,41.8,51.9,58.1
						C146.8,73.4,139.1,71.2,134.1,66.2z"/>
					
						<linearGradient id="SVGID_00000044178999331841195220000007222863905674574739_" gradientUnits="userSpaceOnUse" x1="-841.0468" y1="7.8932" x2="-841.0468" y2="6.4256" gradientTransform="matrix(90.7723 0 0 66.8855 76396.5391 -413.5352)">
						<stop  offset="0" style="stop-color:#6A12CB"/>
						<stop  offset="1" style="stop-color:#2575FC"/>
					</linearGradient>
					
						<path style="opacity:0.6;fill:url(#SVGID_00000044178999331841195220000007222863905674574739_);enable-background:new    ;" d="
						M115,81.5c-4.7-6-10.1-10-13.8-9c-3.8,1-11.2,14.1-18.5,14.1S71.7,71.5,67.8,71.5c-4.1,0-10.3,9.5-20.7,17.6
						s-23.5-1.5-18.6-14.5c3.5-9.2,27.4-42.7,36.1-42.1c8.9,0.6,12.5,15.1,19.2,15.3c6.7,0.1,11.7-12.9,17.9-13.2
						c3.2-0.1,6.4,2.2,10.1,6c-16.2-20.3-47.6-27.1-75-23C13.6,21-6.6,32.5-11.6,50.8s0.9,32.3,12.5,42.4
						C39.4,126.8,139.9,118.6,115,81.5z"/>
					
						<linearGradient id="SVGID_00000133515600819071111260000009391064389451418778_" gradientUnits="userSpaceOnUse" x1="-839.3483" y1="8.214" x2="-839.3483" y2="6.7455" gradientTransform="matrix(72.5941 0 0 65.6321 61003.8008 -385.896)">
						<stop  offset="0" style="stop-color:#6A12CB"/>
						<stop  offset="1" style="stop-color:#2575FC"/>
					</linearGradient>
					
						<path style="opacity:0.5;fill:url(#SVGID_00000133515600819071111260000009391064389451418778_);enable-background:new    ;" d="
						M101.2,72.5c-3.9,1-11.2,14.1-18.5,14.1S71.7,71.5,67.8,71.5S57.5,81,47.1,89.1s-23.5-1.5-18.6-14.5
						c1.3-3.5,5.5-10.4,10.8-17.8c-20,26.4-23.3,51.7-17.5,69.7l2,1.6l-2-1.6c5.7,17.2,19.8,27.9,36.6,26.6
						c8.2-0.6,16.3-5.7,24-12.5l0,0c21.1-18.5,39-49.9,42.5-37.6C122.6,88.5,108.9,70.5,101.2,72.5z M60.1,141.8
						c-13.1-0.7-25.6-5.4-36-13.5C34.5,136.4,47,141.1,60.1,141.8c7.3,0.3,14.6,0,21.7-1C74.5,141.7,67.4,142.1,60.1,141.8z"/>
					<g class="st5">
						
							<linearGradient id="SVGID_00000109013927385269210490000008395508187758900893_" gradientUnits="userSpaceOnUse" x1="-796.7496" y1="32.9707" x2="-796.7496" y2="31.5033" gradientTransform="matrix(12.0739 0 0 13.5837 9758.7041 -417.62)">
							<stop  offset="0" style="stop-color:#6A12CB"/>
							<stop  offset="1" style="stop-color:#2575FC"/>
						</linearGradient>
						<path style="fill:url(#SVGID_00000109013927385269210490000008395508187758900893_);" d="M143.1,13.4
							c-3.8-2.8-8.6-3.7-13.1-2.6c6.6,5.3,11.9,11.9,15.6,19.5C148.4,23.5,149,17.6,143.1,13.4z"/>
						
							<linearGradient id="SVGID_00000002366948472368107160000014853495534350552457_" gradientUnits="userSpaceOnUse" x1="-834.7617" y1="12.7978" x2="-834.7617" y2="11.3302" gradientTransform="matrix(47.4217 0 0 37.7809 39696.8984 -417.3271)">
							<stop  offset="0" style="stop-color:#6A12CB"/>
							<stop  offset="1" style="stop-color:#2575FC"/>
						</linearGradient>
						<path style="fill:url(#SVGID_00000002366948472368107160000014853495534350552457_);" d="M130,10.7
							c-20.4,4-44.1,37.4-53.5,31.3c2.3,3.1,4.7,5.7,7.4,5.9c6.7,0.3,11.7-12.9,17.9-13.2c8.2-0.6,17.5,16.6,32.3,31.7
							c-5.8-9.7,6.4-23.9,11.4-36C142,22.6,136.6,16,130,10.7z"/>
					</g>
					
						<linearGradient id="SVGID_00000148662326445257532500000014213140609467607728_" gradientUnits="userSpaceOnUse" x1="-842.2635" y1="21.1189" x2="-842.2635" y2="19.6513" gradientTransform="matrix(112.8498 0 0 22.9567 95118.6797 -368.0403)">
						<stop  offset="0" style="stop-color:#6A12CB"/>
						<stop  offset="1" style="stop-color:#2575FC"/>
					</linearGradient>
					<path style="fill:url(#SVGID_00000148662326445257532500000014213140609467607728_);" d="M130.8,83.2
						c-4.2,2.8,9.3,33,18.6,26.9C158.9,104.1,135,80.5,130.8,83.2z M-1.1,105.7c3.1,2.5-2.8,15.3-9.8,9.7
						C-17.7,109.8-4.2,103.2-1.1,105.7z"/>
					
						<linearGradient id="SVGID_00000030454019323453854530000011838793855517070270_" gradientUnits="userSpaceOnUse" x1="-834.7896" y1="10.7252" x2="-834.7896" y2="9.2588" gradientTransform="matrix(47.704 0 0 48.5639 39941.0977 -371.283)">
						<stop  offset="0" style="stop-color:#6A12CB"/>
						<stop  offset="1" style="stop-color:#2575FC"/>
					</linearGradient>
					<path style="fill:url(#SVGID_00000030454019323453854530000011838793855517070270_);" d="M141.7,78.5c-5.2,2.1,7,12,10.6,7.5
						C156,81.3,145,77.1,141.7,78.5z M83.7,145.3c-1.3,5.4,6.3,5.6,4.7,0.1C87.5,142.5,84.4,142.4,83.7,145.3z"/>
					
						<linearGradient id="SVGID_00000127028935642545585000000016296891809272379783_" gradientUnits="userSpaceOnUse" x1="-806.8622" y1="55.2264" x2="-806.8622" y2="53.7588" gradientTransform="matrix(13.9027 0 0 8.4517 11203.959 -361.1041)">
						<stop  offset="0" style="stop-color:#6A12CB"/>
						<stop  offset="1" style="stop-color:#2575FC"/>
					</linearGradient>
					<path style="fill:url(#SVGID_00000127028935642545585000000016296891809272379783_);" d="M-4.6,98.9c-2.5,3.5-9.6,7.9-15.2,6.5
						c-4.7-1.2-8.4-14.1,8.7-11.9C-1.2,94.8-3.4,97.2-4.6,98.9z"/>
				</g>
			</g>
		</g>
	</g>
</g>
</svg>
