<?xml version="1.0" encoding="utf-8"?>
<!-- Generator: Adobe Illustrator 27.0.0, SVG Export Plug-In . SVG Version: 6.00 Build 0)  -->
<svg version="1.1" id="图层_1" xmlns="http://www.w3.org/2000/svg" xmlns:xlink="http://www.w3.org/1999/xlink" x="0px" y="0px"
	 viewBox="0 0 200 160" style="enable-background:new 0 0 200 160;" xml:space="preserve">
<style type="text/css">
	.st0{fill:url(#SVGID_1_);fill-opacity:0;}
	.st1{fill:url(#SVGID_00000139273810390965462200000002740524720424306819_);}
	.st2{opacity:0.6;fill:url(#SVGID_00000180363823046749061890000017505507521086103453_);enable-background:new    ;}
	.st3{opacity:0.5;fill:url(#SVGID_00000155139525031438482700000016999012102779273110_);enable-background:new    ;}
	.st4{opacity:0.5;}
	.st5{fill:url(#SVGID_00000068635475598579188140000016356569814592348808_);}
	.st6{fill:url(#SVGID_00000016073378501931049360000003432391564595198346_);}
	.st7{fill:url(#SVGID_00000044168889703070421680000009095666174330778758_);}
	.st8{fill:url(#SVGID_00000013897753144943610710000003649322210918282158_);}
	.st9{fill:url(#SVGID_00000172416843464394012350000008250110949088749228_);}
</style>
<g>
	<g>
		<g>
			
				<linearGradient id="SVGID_1_" gradientUnits="userSpaceOnUse" x1="-1419.5538" y1="456.571" x2="-1419.5538" y2="458.0383" gradientTransform="matrix(121.3367 0 0 -105.0261 172343.9688 48108.8711)">
				<stop  offset="0" style="stop-color:#6A12CB"/>
				<stop  offset="1" style="stop-color:#2575FC"/>
			</linearGradient>
			<rect x="11.6" y="2.9" class="st0" width="176.7" height="154.1"/>
			<g id="bdb629a9-c5a0-4b5e-83f7-409ce17022fc">
				<g id="f1d53a6a-9d11-4667-8b9e-c2b3e6492a78">
					
						<linearGradient id="SVGID_00000144296304022536918590000003117854827677776031_" gradientUnits="userSpaceOnUse" x1="-1417.8346" y1="456.0161" x2="-1417.8346" y2="457.4839" gradientTransform="matrix(103.7521 0 0 -97.2874 147214.1562 44510.3281)">
						<stop  offset="0" style="stop-color:#6A12CB"/>
						<stop  offset="1" style="stop-color:#2575FC"/>
					</linearGradient>
					<path style="fill:url(#SVGID_00000144296304022536918590000003117854827677776031_);" d="M169.4,70.1
						c-14.9-15.1-24.2-32.3-32.3-31.7c-6.2,0.5-11.3,13.5-18,13.2S108.9,36.9,100,36.3c-8.8-0.5-32.7,32.9-36.1,42.2
						c-4.8,13.1,8.2,22.6,18.6,14.5s16.8-17.6,20.8-17.6c3.9,0,7.6,15.1,14.9,15.1s14.6-13.1,18.5-14.1c7.6-2.2,21.4,16,23.7,30.5
						c3.2,19.4-19.4,40.5-65,38.7c-36.3-1.3-72.7-39-56.1-80.1S91.9,0.5,134,3.1c42,2.6,55.5,41.8,51.9,58.1
						C182.1,77.3,174.4,75.1,169.4,70.1z"/>
					
						<linearGradient id="SVGID_00000116921887388637764460000012069918585915899019_" gradientUnits="userSpaceOnUse" x1="-1416.2461" y1="452.5187" x2="-1416.2461" y2="453.9863" gradientTransform="matrix(90.7723 0 0 -66.8855 128644.0156 30385.2207)">
						<stop  offset="0" style="stop-color:#6A12CB"/>
						<stop  offset="1" style="stop-color:#2575FC"/>
					</linearGradient>
					
						<path style="opacity:0.6;fill:url(#SVGID_00000116921887388637764460000012069918585915899019_);enable-background:new    ;" d="
						M150.3,85.4c-4.7-6-10.1-10-13.8-9c-3.8,1-11.2,14.1-18.5,14.1s-11-15.1-14.9-15.1c-4.1,0-10.3,9.5-20.7,17.6
						s-23.5-1.5-18.6-14.5c3.5-9.2,27.4-42.7,36.1-42.1c8.9,0.6,12.5,15.1,19.2,15.3c6.7,0.1,11.7-12.9,17.9-13.2
						c3.2-0.1,6.4,2.2,10.1,6c-16.2-20.3-47.6-27.1-75-23c-23.2,3.4-43.4,14.9-48.4,33.2S24.6,87,36.2,97.1
						C74.7,130.7,175.2,122.5,150.3,85.4z"/>
					
						<linearGradient id="SVGID_00000051357815437221466460000012666134317066071459_" gradientUnits="userSpaceOnUse" x1="-1412.8444" y1="452.11" x2="-1412.8444" y2="453.5789" gradientTransform="matrix(72.5941 0 0 -65.6321 102671.5703 29830.0312)">
						<stop  offset="0" style="stop-color:#6A12CB"/>
						<stop  offset="1" style="stop-color:#2575FC"/>
					</linearGradient>
					
						<path style="opacity:0.5;fill:url(#SVGID_00000051357815437221466460000012666134317066071459_);enable-background:new    ;" d="
						M136.5,76.4c-3.9,1-11.2,14.1-18.5,14.1s-11-15.1-14.9-15.1S92.8,84.9,82.4,93s-23.5-1.5-18.6-14.5c1.3-3.5,5.5-10.4,10.8-17.8
						c-20,26.4-23.3,51.7-17.5,69.7l2,1.6l-2-1.6c5.7,17.2,19.8,27.9,36.6,26.6c8.2-0.6,16.3-5.7,24-12.5l0,0
						c21.1-18.5,39-49.9,42.5-37.6C157.9,92.4,144.2,74.4,136.5,76.4z M95.4,145.7c-13.1-0.7-25.6-5.4-36-13.5
						C69.8,140.3,82.3,145,95.4,145.7c7.3,0.3,14.6,0,21.7-1C109.8,145.6,102.7,146,95.4,145.7z"/>
					<g class="st4">
						
							<linearGradient id="SVGID_00000056411812773783648120000008488121362341781386_" gradientUnits="userSpaceOnUse" x1="-1327.6201" y1="409.4363" x2="-1327.6201" y2="410.9037" gradientTransform="matrix(12.0739 0 0 -13.5837 16203.7139 5595.8008)">
							<stop  offset="0" style="stop-color:#6A12CB"/>
							<stop  offset="1" style="stop-color:#2575FC"/>
						</linearGradient>
						<path style="fill:url(#SVGID_00000056411812773783648120000008488121362341781386_);" d="M178.4,17.3
							c-3.8-2.8-8.6-3.7-13.1-2.6c6.6,5.3,11.9,11.9,15.6,19.5C183.7,27.4,184.3,21.5,178.4,17.3z"/>
						
							<linearGradient id="SVGID_00000052093009883579075480000005478955313405700785_" gradientUnits="userSpaceOnUse" x1="-1403.7454" y1="444.0791" x2="-1403.7454" y2="445.5467" gradientTransform="matrix(47.4217 0 0 -37.7809 66714.3281 16847.791)">
							<stop  offset="0" style="stop-color:#6A12CB"/>
							<stop  offset="1" style="stop-color:#2575FC"/>
						</linearGradient>
						<path style="fill:url(#SVGID_00000052093009883579075480000005478955313405700785_);" d="M165.3,14.6
							c-20.4,4-44.1,37.4-53.5,31.3c2.3,3.1,4.7,5.7,7.4,5.9c6.7,0.3,11.7-12.9,17.9-13.2c8.2-0.6,17.5,16.6,32.3,31.7
							c-5.8-9.7,6.4-23.9,11.4-36C177.3,26.5,171.9,19.9,165.3,14.6z"/>
					</g>
					
						<linearGradient id="SVGID_00000075147831490645546440000013587447567247548318_" gradientUnits="userSpaceOnUse" x1="-1418.7931" y1="430.5116" x2="-1418.7931" y2="431.9792" gradientTransform="matrix(112.8498 0 0 -22.9567 160215.2656 10003.8252)">
						<stop  offset="0" style="stop-color:#6A12CB"/>
						<stop  offset="1" style="stop-color:#2575FC"/>
					</linearGradient>
					<path style="fill:url(#SVGID_00000075147831490645546440000013587447567247548318_);" d="M166.1,87.1
						c-4.2,2.8,9.3,33,18.6,26.9C194.2,108,170.3,84.4,166.1,87.1z M34.2,109.6c3.1,2.5-2.8,15.3-9.8,9.7
						C17.6,113.7,31.1,107.1,34.2,109.6z"/>
					
						<linearGradient id="SVGID_00000179630071721862743130000017107302134436560015_" gradientUnits="userSpaceOnUse" x1="-1403.8485" y1="447.9554" x2="-1403.8485" y2="449.4217" gradientTransform="matrix(47.704 0 0 -48.5639 67122.8281 21907.9297)">
						<stop  offset="0" style="stop-color:#6A12CB"/>
						<stop  offset="1" style="stop-color:#2575FC"/>
					</linearGradient>
					<path style="fill:url(#SVGID_00000179630071721862743130000017107302134436560015_);" d="M177,82.4c-5.2,2.1,7,12,10.6,7.5
						C191.3,85.2,180.3,81,177,82.4z M119,149.2c-1.3,5.4,6.3,5.6,4.7,0.1C122.8,146.4,119.7,146.3,119,149.2z"/>
					
						<linearGradient id="SVGID_00000052089177705668319450000011859654165787590282_" gradientUnits="userSpaceOnUse" x1="-1344.4598" y1="373.4618" x2="-1344.4598" y2="374.9294" gradientTransform="matrix(13.9027 0 0 -8.4517 18713.3301 3265.9365)">
						<stop  offset="0" style="stop-color:#6A12CB"/>
						<stop  offset="1" style="stop-color:#2575FC"/>
					</linearGradient>
					<path style="fill:url(#SVGID_00000052089177705668319450000011859654165787590282_);" d="M30.7,102.8
						c-2.5,3.5-9.6,7.9-15.2,6.5c-4.7-1.2-8.4-14.1,8.7-11.9C34.1,98.7,31.9,101.1,30.7,102.8z"/>
				</g>
			</g>
		</g>
	</g>
</g>
</svg>
